<svg width="405" height="67" viewBox="0 0 405 67" fill="none" xmlns="http://www.w3.org/2000/svg">
<path d="M21.6739 46.3804C17.7054 46.3804 14.1107 45.4601 10.8899 43.6196C7.72654 41.7216 5.22464 39.076 3.38416 35.6826C1.54368 32.2317 0.623442 28.1769 0.623442 23.5182C0.623442 19.4921 1.51492 15.7249 3.29789 12.2165C5.13836 8.70807 7.69778 5.88984 10.9761 3.76178C14.2545 1.57622 18.0505 0.483431 22.3641 0.483431C24.7797 0.483431 27.0228 0.886036 29.0933 1.69124C31.2214 2.43894 33.0906 3.618 34.701 5.22841C36.3115 6.78132 37.5768 8.76558 38.497 11.1812C39.4173 13.5393 39.8774 16.3288 39.8774 19.5496L9.5095 20.0673C9.5095 24.4384 9.96962 28.2919 10.8899 31.6278C11.8676 34.9061 13.4205 37.4655 15.5486 39.306C17.6766 41.089 20.4086 41.9805 23.7444 41.9805C25.5274 41.9805 27.3391 41.6641 29.1796 41.0315C31.0776 40.3988 32.8318 39.5361 34.4422 38.4433C36.0526 37.3505 37.3467 36.1427 38.3245 34.8199L40.395 36.5453C38.8421 38.9609 36.9729 40.8877 34.7873 42.3256C32.6018 43.7634 30.3587 44.7987 28.0581 45.4314C25.7575 46.064 23.6294 46.3804 21.6739 46.3804ZM9.76832 16.4438H31.7678C31.7678 14.3733 31.4515 12.389 30.8188 10.491C30.2436 8.53552 29.2659 6.95386 27.8855 5.74605C26.5052 4.48072 24.6934 3.84806 22.4504 3.84806C19.1145 3.84806 16.325 4.85457 14.0819 6.86759C11.8964 8.8231 10.4585 12.0152 9.76832 16.4438ZM47.555 45V42.4118C49.3379 42.4118 50.5745 41.9805 51.2647 41.1177C51.9549 40.1975 52.3575 38.9609 52.4725 37.408C52.5875 35.7976 52.645 33.9571 52.645 31.8866L52.7313 12.2165C52.7313 11.2962 52.7313 10.376 52.7313 9.45576C52.7888 8.53552 52.9039 7.58653 53.0764 6.60877C52.0411 6.66629 51.0059 6.7238 49.9706 6.78132C48.9928 6.83883 47.9863 6.89635 46.9511 6.95386V3.33042C49.4817 3.33042 51.3797 3.21539 52.645 2.98533C53.9679 2.75527 54.9456 2.4677 55.5783 2.12261C56.211 1.77752 56.7286 1.40367 57.1312 1.00106H59.6331C59.6906 1.40367 59.7194 1.86379 59.7194 2.38143C59.7769 2.89906 59.8344 3.47421 59.8919 4.10687C59.9494 4.73954 59.9782 5.45847 59.9782 6.26368C61.2435 5.1709 62.6239 4.19315 64.1193 3.33042C65.6722 2.4677 67.2826 1.77752 68.9505 1.25988C70.676 0.742248 72.3727 0.483431 74.0406 0.483431C79.0444 0.483431 82.6966 2.06509 84.9972 5.22841C87.2978 8.33422 88.4481 13.1942 88.4481 19.8085V35.8551C88.4481 37.0054 88.4193 38.0407 88.3618 38.9609C88.3618 39.8237 88.2755 40.7439 88.103 41.7216C89.0232 41.6641 89.9147 41.6354 90.7774 41.6354C91.6977 41.5779 92.6179 41.5203 93.5382 41.4628V45H75.9386V42.4118C77.7216 42.4118 78.9581 41.9805 79.6483 41.1177C80.3385 40.1975 80.7411 38.9609 80.8561 37.408C80.9711 35.7976 81.0287 33.9571 81.0287 31.8866V19.8085C80.9711 14.8622 80.1372 11.1237 78.5268 8.59304C76.9739 6.06238 74.5007 4.82581 71.1073 4.88332C69.0368 4.94084 66.995 5.48723 64.982 6.5225C63.0265 7.55777 61.3873 8.88061 60.0645 10.491C60.122 10.9512 60.1507 11.4688 60.1507 12.0439C60.1507 12.6191 60.1507 13.223 60.1507 13.8557L60.0645 35.8551C60.0645 37.0054 60.0357 38.0407 59.9782 38.9609C59.9782 39.8237 59.8919 40.7439 59.7194 41.7216C60.6396 41.6641 61.5311 41.6354 62.3938 41.6354C63.3141 41.5779 64.2343 41.5203 65.1545 41.4628V45H47.555ZM121.009 46.3804C117.156 46.3804 113.59 45.5176 110.311 43.7922C107.091 42.0092 104.502 39.4786 102.547 36.2002C100.649 32.8643 99.6999 28.8671 99.6999 24.2083C99.6999 21.2176 100.246 18.3131 101.339 15.4948C102.432 12.6766 103.956 10.1459 105.912 7.90286C107.925 5.60226 110.311 3.79054 113.072 2.4677C115.833 1.14485 118.881 0.483431 122.217 0.483431C125.438 0.483431 128.227 0.972309 130.585 1.95006C133.001 2.92782 134.87 4.2219 136.193 5.83232C137.516 7.44274 138.177 9.19695 138.177 11.0949C138.177 12.3603 137.832 13.4531 137.142 14.3733C136.452 15.236 135.445 15.6674 134.123 15.6674C132.685 15.7249 131.649 15.2935 131.017 14.3733C130.442 13.3955 130.154 12.5328 130.154 11.7851C130.154 11.21 130.24 10.6348 130.413 10.0597C130.585 9.42701 130.931 8.85186 131.448 8.33422C130.988 6.95386 130.183 5.94735 129.033 5.31469C127.882 4.62451 126.674 4.19315 125.409 4.0206C124.201 3.79054 123.195 3.67551 122.39 3.67551C118.479 3.67551 115.171 5.25717 112.468 8.42049C109.823 11.5263 108.5 16.07 108.5 22.0515C108.5 25.905 109.104 29.3272 110.311 32.318C111.577 35.3087 113.331 37.6668 115.574 39.3923C117.817 41.0602 120.405 41.8942 123.339 41.8942C126.042 41.8942 128.63 41.1753 131.103 39.7374C133.576 38.2995 135.503 36.5453 136.883 34.4748L139.126 36.2002C137.631 38.6158 135.819 40.5713 133.691 42.0667C131.621 43.5621 129.464 44.6549 127.221 45.3451C125.035 46.0353 122.965 46.3804 121.009 46.3804ZM171.934 45C171.761 44.0222 171.646 43.1595 171.588 42.4118C171.531 41.6641 171.445 40.8877 171.33 40.0825C169.374 42.038 167.246 43.5909 164.945 44.7412C162.702 45.834 160.315 46.3804 157.785 46.3804C153.414 46.3804 150.164 45.4026 148.036 43.4471C145.908 41.4341 144.844 38.9897 144.844 36.1139C144.844 33.4683 145.649 31.1964 147.26 29.2984C148.928 27.3429 151.056 25.7613 153.644 24.5534C156.289 23.2881 159.136 22.3679 162.185 21.7927C165.291 21.1601 168.281 20.8725 171.157 20.93V15.5811C171.157 13.5681 170.985 11.6701 170.639 9.88713C170.294 8.10416 169.547 6.63753 168.396 5.48723C167.246 4.33693 165.406 3.73303 162.875 3.67551C161.207 3.618 159.482 3.93433 157.699 4.62451C155.973 5.31469 154.708 6.49374 153.903 8.16168C154.363 8.6218 154.65 9.16819 154.765 9.80085C154.938 10.376 155.024 10.9224 155.024 11.44C155.024 12.1302 154.737 12.9354 154.161 13.8557C153.586 14.7184 152.58 15.121 151.142 15.0635C149.934 15.0635 149.014 14.6609 148.381 13.8557C147.748 12.9929 147.432 11.9864 147.432 10.8361C147.432 8.88061 148.151 7.12641 149.589 5.5735C151.084 4.0206 153.126 2.78403 155.714 1.86379C158.302 0.943551 161.236 0.483431 164.514 0.483431C169.345 0.483431 172.911 1.77752 175.212 4.36569C177.512 6.89635 178.634 10.9224 178.576 16.4438C178.576 18.5719 178.576 20.7287 178.576 22.9143C178.576 25.0423 178.548 27.1991 178.49 29.3847C178.49 31.5127 178.49 33.6696 178.49 35.8551C178.49 36.7754 178.461 37.6956 178.404 38.6158C178.346 39.5361 178.26 40.5713 178.145 41.7216C179.18 41.6641 180.187 41.6066 181.165 41.5491C182.2 41.4916 183.235 41.4341 184.27 41.3766V45H171.934ZM171.157 23.8633C169.202 23.9208 167.131 24.1796 164.945 24.6397C162.817 25.0423 160.833 25.675 158.993 26.5377C157.21 27.4004 155.743 28.5507 154.593 29.9886C153.5 31.369 152.982 33.0656 153.04 35.0787C153.155 37.2067 153.845 38.8171 155.11 39.9099C156.433 40.9452 157.986 41.4628 159.769 41.4628C162.127 41.4628 164.169 41.0315 165.894 40.1687C167.677 39.2485 169.432 37.9832 171.157 36.3728C171.1 35.7401 171.071 35.0499 171.071 34.3022C171.071 33.5545 171.071 32.7781 171.071 31.9729C171.071 31.6853 171.071 30.7651 171.071 29.2121C171.128 27.6592 171.157 25.8763 171.157 23.8633ZM203.649 45.949C200.889 45.949 198.329 45.5464 195.971 44.7412C193.671 43.936 191.801 42.7857 190.363 41.2903C188.926 39.7374 188.207 37.9544 188.207 35.9414C188.207 34.1584 188.724 32.7206 189.76 31.6278C190.852 30.4775 192.175 29.9023 193.728 29.9023C195.281 29.9023 196.546 30.42 197.524 31.4552C198.502 32.4905 198.991 33.7558 198.991 35.2512C198.991 35.6538 198.933 36.0852 198.818 36.5453C198.761 36.9479 198.646 37.3793 198.473 37.8394C198.761 38.4145 199.508 38.9609 200.716 39.4786C201.981 39.9962 203.045 40.255 203.908 40.255C206.439 40.255 208.193 39.7086 209.171 38.6158C210.206 37.5231 210.724 36.2865 210.724 34.9061C210.724 33.8133 210.292 32.8643 209.43 32.0591C208.624 31.1964 207.56 30.3624 206.238 29.5572C204.915 28.752 203.506 27.9181 202.01 27.0553C199.307 25.5024 197.064 24.0646 195.281 22.7417C193.498 21.4189 192.175 20.0385 191.312 18.6006C190.507 17.1053 190.105 15.351 190.105 13.338C190.105 11.325 190.737 9.36949 192.003 7.4715C193.268 5.5735 195.108 4.0206 197.524 2.81279C199.997 1.54746 202.988 0.914793 206.496 0.914793C208.797 0.914793 211.04 1.28864 213.226 2.03634C215.469 2.78403 217.309 3.87681 218.747 5.31469C220.242 6.69505 220.99 8.39174 220.99 10.4048C220.99 11.9001 220.501 13.223 219.524 14.3733C218.546 15.5236 217.223 16.0987 215.555 16.0987C214.002 16.0987 212.737 15.5811 211.759 14.5458C210.839 13.4531 210.379 12.2165 210.379 10.8361C210.379 10.376 210.407 9.94464 210.465 9.54204C210.58 9.13943 210.724 8.73683 210.896 8.33422C210.436 7.70156 209.717 7.2702 208.739 7.04013C207.819 6.75256 206.957 6.60877 206.151 6.60877C205.346 6.60877 204.483 6.78132 203.563 7.12641C202.7 7.4715 201.953 7.98913 201.32 8.67931C200.687 9.31198 200.371 10.1172 200.371 11.0949C200.371 11.9001 200.544 12.6191 200.889 13.2517C201.291 13.8269 202.068 14.5171 203.218 15.3223C204.368 16.07 206.094 17.134 208.394 18.5144C210.292 19.6072 212.219 20.7862 214.175 22.0515C216.188 23.3169 217.856 24.8123 219.178 26.5377C220.559 28.2056 221.249 30.2474 221.249 32.663C221.249 35.2512 220.473 37.5518 218.92 39.5648C217.367 41.5779 215.267 43.1595 212.622 44.3098C209.976 45.4026 206.985 45.949 203.649 45.949ZM253.108 0.914793C254.719 0.914793 256.588 1.08734 258.716 1.43243C260.902 1.72001 263.174 2.15137 265.532 2.72652C265.244 4.85457 264.87 7.4715 264.41 10.5773C263.95 13.6831 263.49 16.8752 263.03 20.1535C262.627 23.3744 262.282 26.3652 261.994 29.1259C261.707 31.8291 261.563 33.9284 261.563 35.4238C261.563 36.459 261.678 37.1492 261.908 37.4943C262.196 37.7819 262.483 37.9257 262.771 37.9257C263.461 37.9257 264.18 37.4368 264.928 36.459C265.675 35.4813 266.423 33.6983 267.171 31.1101L271.83 32.4905C271.599 33.6983 271.197 35.0787 270.622 36.6316C270.047 38.1845 269.27 39.6799 268.292 41.1177C267.372 42.4981 266.193 43.6484 264.755 44.5686C263.375 45.4889 261.736 45.949 259.838 45.949C257.997 45.949 256.387 45.4026 255.006 44.3098C253.626 43.217 252.936 41.1465 252.936 38.0982C252.936 37.3505 252.965 36.5165 253.022 35.5963C253.08 34.6761 253.166 33.8421 253.281 33.0944H253.195C252.159 35.5675 251.038 37.6381 249.83 39.306C248.68 40.974 247.472 42.2968 246.207 43.2746C244.999 44.2523 243.733 44.9425 242.411 45.3451C241.145 45.7477 239.851 45.949 238.528 45.949C235.365 45.949 232.662 44.6837 230.419 42.153C228.176 39.5648 227.054 35.5963 227.054 30.2474C227.054 26.2789 227.629 22.5404 228.78 19.032C229.93 15.5236 231.627 12.4178 233.87 9.71458C236.113 6.95386 238.845 4.79705 242.066 3.24415C245.286 1.69124 248.967 0.914793 253.108 0.914793ZM249.916 6.60877C248.306 6.60877 246.811 7.12641 245.43 8.16168C244.107 9.19695 242.928 10.7211 241.893 12.7341C240.915 14.7471 240.168 17.249 239.65 20.2398C239.132 23.2306 238.873 26.7102 238.873 30.6788C238.873 33.0369 239.161 34.9061 239.736 36.2865C240.311 37.6093 241.117 38.2708 242.152 38.2708C243.417 38.2708 244.596 37.6381 245.689 36.3728C246.782 35.0499 247.76 33.2957 248.622 31.1101C249.542 28.8671 250.319 26.3939 250.952 23.6907C251.642 20.93 252.188 18.1405 252.591 15.3223C253.051 12.4465 253.338 9.71458 253.454 7.12641C253.166 7.01138 252.648 6.89635 251.901 6.78132C251.21 6.66629 250.549 6.60877 249.916 6.60877ZM274.662 66.9995V61.3918C276.1 61.3918 277.164 61.0467 277.854 60.3565C278.601 59.7238 279.119 58.8036 279.407 57.5958C279.752 56.4455 279.982 55.1226 280.097 53.6272C280.73 46.898 281.247 41.089 281.65 36.2002C282.052 31.2539 282.34 27.1129 282.512 23.777C282.743 20.4411 282.886 17.7954 282.944 15.8399C283.059 13.8269 283.116 12.3603 283.116 11.44C283.116 10.4048 282.973 9.74334 282.685 9.45576C282.455 9.11067 282.167 8.93813 281.822 8.93813C281.19 8.93813 280.528 9.42701 279.838 10.4048C279.148 11.3825 278.429 13.1655 277.681 15.7536L273.023 14.3733C273.253 13.1655 273.626 11.7851 274.144 10.2322C274.662 8.67931 275.381 7.21268 276.301 5.83232C277.221 4.39445 278.343 3.21539 279.665 2.29515C281.046 1.37491 282.685 0.914793 284.583 0.914793C286.423 0.914793 288.063 1.46119 289.501 2.55397C290.938 3.64675 291.657 5.71729 291.657 8.76558C291.657 9.85837 291.629 10.7498 291.571 11.44C291.514 12.1302 291.427 12.9642 291.312 13.9419H291.399C292.779 10.491 294.303 7.81659 295.971 5.9186C297.696 4.0206 299.451 2.72651 301.234 2.03634C303.017 1.28864 304.656 0.914793 306.151 0.914793C308.912 0.914793 311.241 1.60497 313.139 2.98533C315.037 4.36569 316.475 6.29244 317.453 8.76558C318.431 11.2387 318.919 14.1145 318.919 17.3928C318.919 22.8567 318.028 27.7455 316.245 32.0591C314.52 36.3728 311.845 39.7661 308.222 42.2393C304.656 44.7124 300.112 45.949 294.591 45.949C294.303 45.949 293.872 45.949 293.297 45.949C292.779 45.949 292.29 45.9202 291.83 45.8627C291.715 48.6234 291.6 50.924 291.485 52.7645C291.37 54.6625 291.255 56.2154 291.14 57.4232C291.025 58.6886 290.91 59.7813 290.795 60.7016C291.715 60.5866 292.75 60.5003 293.9 60.4428C295.051 60.4428 295.913 60.4428 296.489 60.4428V66.9995H274.662ZM295.626 40.255C297.581 40.255 299.221 39.7086 300.543 38.6158C301.924 37.4655 303.045 35.9989 303.908 34.2159C304.771 32.433 305.432 30.5062 305.892 28.4357C306.41 26.3652 306.755 24.3809 306.928 22.4829C307.1 20.5274 307.186 18.8595 307.186 17.4791C307.186 15.351 307.014 13.6544 306.669 12.389C306.324 11.1237 305.835 10.2035 305.202 9.62831C304.569 9.05316 303.822 8.76558 302.959 8.76558C301.809 8.76558 300.716 9.2257 299.681 10.1459C298.703 11.0662 297.783 12.4465 296.92 14.287C296.115 16.1275 295.396 18.3993 294.763 21.1025C294.13 23.8057 293.584 26.9403 293.124 30.5062C292.951 31.9441 292.779 33.4395 292.606 34.9924C292.434 36.4878 292.29 38.0694 292.175 39.7374C292.808 39.9099 293.44 40.0537 294.073 40.1687C294.763 40.2263 295.281 40.255 295.626 40.255ZM350.081 0.914793C351.691 0.914793 353.56 1.08734 355.688 1.43243C357.874 1.72001 360.146 2.15137 362.504 2.72652C362.216 4.85457 361.842 7.4715 361.382 10.5773C360.922 13.6831 360.462 16.8752 360.002 20.1535C359.599 23.3744 359.254 26.3652 358.967 29.1259C358.679 31.8291 358.535 33.9284 358.535 35.4238C358.535 36.459 358.65 37.1492 358.88 37.4943C359.168 37.7819 359.456 37.9257 359.743 37.9257C360.433 37.9257 361.152 37.4368 361.9 36.459C362.648 35.4813 363.395 33.6983 364.143 31.1101L368.802 32.4905C368.572 33.6983 368.169 35.0787 367.594 36.6316C367.019 38.1845 366.242 39.6799 365.265 41.1177C364.344 42.4981 363.165 43.6484 361.727 44.5686C360.347 45.4889 358.708 45.949 356.81 45.949C354.969 45.949 353.359 45.4026 351.979 44.3098C350.598 43.217 349.908 41.1465 349.908 38.0982C349.908 37.3505 349.937 36.5165 349.994 35.5963C350.052 34.6761 350.138 33.8421 350.253 33.0944H350.167C349.132 35.5675 348.01 37.6381 346.802 39.306C345.652 40.974 344.444 42.2968 343.179 43.2746C341.971 44.2523 340.706 44.9425 339.383 45.3451C338.118 45.7477 336.823 45.949 335.501 45.949C332.337 45.949 329.634 44.6837 327.391 42.153C325.148 39.5648 324.026 35.5963 324.026 30.2474C324.026 26.2789 324.602 22.5404 325.752 19.032C326.902 15.5236 328.599 12.4178 330.842 9.71458C333.085 6.95386 335.817 4.79705 339.038 3.24415C342.259 1.69124 345.94 0.914793 350.081 0.914793ZM346.889 6.60877C345.278 6.60877 343.783 7.12641 342.402 8.16168C341.08 9.19695 339.901 10.7211 338.865 12.7341C337.887 14.7471 337.14 17.249 336.622 20.2398C336.105 23.2306 335.846 26.7102 335.846 30.6788C335.846 33.0369 336.133 34.9061 336.708 36.2865C337.284 37.6093 338.089 38.2708 339.124 38.2708C340.389 38.2708 341.568 37.6381 342.661 36.3728C343.754 35.0499 344.732 33.2957 345.594 31.1101C346.515 28.8671 347.291 26.3939 347.924 23.6907C348.614 20.93 349.16 18.1405 349.563 15.3223C350.023 12.4465 350.311 9.71458 350.426 7.12641C350.138 7.01138 349.621 6.89635 348.873 6.78132C348.183 6.66629 347.521 6.60877 346.889 6.60877ZM386.473 45.949C383.712 45.949 381.153 45.5464 378.795 44.7412C376.494 43.936 374.625 42.7857 373.187 41.2903C371.749 39.7374 371.03 37.9544 371.03 35.9414C371.03 34.1584 371.548 32.7206 372.583 31.6278C373.676 30.4775 374.999 29.9023 376.551 29.9023C378.104 29.9023 379.37 30.42 380.347 31.4552C381.325 32.4905 381.814 33.7558 381.814 35.2512C381.814 35.6538 381.757 36.0852 381.642 36.5453C381.584 36.9479 381.469 37.3793 381.296 37.8394C381.584 38.4145 382.332 38.9609 383.54 39.4786C384.805 39.9962 385.869 40.255 386.732 40.255C389.262 40.255 391.016 39.7086 391.994 38.6158C393.029 37.5231 393.547 36.2865 393.547 34.9061C393.547 33.8133 393.116 32.8643 392.253 32.0591C391.448 31.1964 390.384 30.3624 389.061 29.5572C387.738 28.752 386.329 27.9181 384.834 27.0553C382.13 25.5024 379.887 24.0646 378.104 22.7417C376.321 21.4189 374.999 20.0385 374.136 18.6006C373.331 17.1053 372.928 15.351 372.928 13.338C372.928 11.325 373.561 9.36949 374.826 7.4715C376.091 5.5735 377.932 4.0206 380.347 2.81279C382.821 1.54746 385.811 0.914793 389.32 0.914793C391.62 0.914793 393.863 1.28864 396.049 2.03634C398.292 2.78403 400.133 3.87681 401.57 5.31469C403.066 6.69505 403.814 8.39174 403.814 10.4048C403.814 11.9001 403.325 13.223 402.347 14.3733C401.369 15.5236 400.046 16.0987 398.378 16.0987C396.825 16.0987 395.56 15.5811 394.582 14.5458C393.662 13.4531 393.202 12.2165 393.202 10.8361C393.202 10.376 393.231 9.94464 393.288 9.54204C393.403 9.13943 393.547 8.73683 393.72 8.33422C393.26 7.70156 392.541 7.2702 391.563 7.04013C390.643 6.75256 389.78 6.60877 388.975 6.60877C388.169 6.60877 387.307 6.78132 386.387 7.12641C385.524 7.4715 384.776 7.98913 384.143 8.67931C383.511 9.31198 383.194 10.1172 383.194 11.0949C383.194 11.9001 383.367 12.6191 383.712 13.2517C384.115 13.8269 384.891 14.5171 386.041 15.3223C387.192 16.07 388.917 17.134 391.218 18.5144C393.116 19.6072 395.043 20.7862 396.998 22.0515C399.011 23.3169 400.679 24.8123 402.002 26.5377C403.382 28.2056 404.072 30.2474 404.072 32.663C404.072 35.2512 403.296 37.5518 401.743 39.5648C400.19 41.5779 398.091 43.1595 395.445 44.3098C392.799 45.4026 389.809 45.949 386.473 45.949Z" fill="white"/>
</svg>
